<svg xmlns="http://www.w3.org/2000/svg" width="256" height="256" viewBox="0 0 100 100"><path d="M12.13 73.02L12.13 73.02Q8.12 73.02 5.42 71.39Q2.73 69.77 1.35 66.91Q-0.02 64.05-0.02 60.26L-0.02 60.26L-0.02 40.07Q-0.02 36.17 1.27 33.22Q2.56 30.28 5.26 28.63Q7.95 26.98 12.13 26.98L12.13 26.98Q16.31 26.98 18.98 28.63Q21.65 30.28 22.94 33.22Q24.23 36.17 24.23 40.07L24.23 40.07L24.23 60.26Q24.23 64.00 22.86 66.88Q21.48 69.77 18.79 71.39Q16.09 73.02 12.13 73.02ZM12.13 64.82L12.13 64.82Q13.45 64.82 14.03 63.97Q14.61 63.12 14.75 61.99Q14.88 60.86 14.88 60.04L14.88 60.04L14.88 40.29Q14.88 39.36 14.77 38.17Q14.66 36.99 14.09 36.08Q13.51 35.18 12.13 35.18L12.13 35.18Q10.76 35.18 10.18 36.08Q9.60 36.99 9.49 38.17Q9.38 39.36 9.38 40.29L9.38 40.29L9.38 60.04Q9.38 60.86 9.55 61.99Q9.71 63.12 10.29 63.97Q10.87 64.82 12.13 64.82ZM39.30 49.53L30.94 49.53L30.94 41.17L39.30 41.17L39.30 49.53ZM39.30 69.11L30.94 69.11L30.94 60.75L39.30 60.75L39.30 69.11ZM57.67 73.02L57.67 73.02Q53.66 73.02 50.96 71.39Q48.27 69.77 46.89 66.91Q45.52 64.05 45.52 60.26L45.52 60.26L45.52 40.07Q45.52 36.17 46.81 33.22Q48.10 30.28 50.80 28.63Q53.49 26.98 57.67 26.98L57.67 26.98Q61.85 26.98 64.52 28.63Q67.19 30.28 68.48 33.22Q69.77 36.17 69.77 40.07L69.77 40.07L69.77 60.26Q69.77 64.00 68.40 66.88Q67.02 69.77 64.33 71.39Q61.63 73.02 57.67 73.02ZM57.67 64.82L57.67 64.82Q58.99 64.82 59.57 63.97Q60.15 63.12 60.29 61.99Q60.42 60.86 60.42 60.04L60.42 60.04L60.42 40.29Q60.42 39.36 60.31 38.17Q60.20 36.99 59.63 36.08Q59.05 35.18 57.67 35.18L57.67 35.18Q56.30 35.18 55.72 36.08Q55.14 36.99 55.03 38.17Q54.92 39.36 54.92 40.29L54.92 40.29L54.92 60.04Q54.92 60.86 55.09 61.99Q55.25 63.12 55.83 63.97Q56.41 64.82 57.67 64.82ZM87.92 73.02L87.92 73.02Q83.91 73.02 81.21 71.39Q78.52 69.77 77.14 66.91Q75.77 64.05 75.77 60.26L75.77 60.26L75.77 40.07Q75.77 36.17 77.06 33.22Q78.35 30.28 81.05 28.63Q83.74 26.98 87.92 26.98L87.92 26.98Q92.10 26.98 94.77 28.63Q97.44 30.28 98.73 33.22Q100.02 36.17 100.02 40.07L100.02 40.07L100.02 60.26Q100.02 64.00 98.65 66.88Q97.27 69.77 94.58 71.39Q91.88 73.02 87.92 73.02ZM87.92 64.82L87.92 64.82Q89.24 64.82 89.82 63.97Q90.40 63.12 90.54 61.99Q90.67 60.86 90.67 60.04L90.67 60.04L90.67 40.29Q90.67 39.36 90.56 38.17Q90.45 36.99 89.88 36.08Q89.30 35.18 87.92 35.18L87.92 35.18Q86.55 35.18 85.97 36.08Q85.39 36.99 85.28 38.17Q85.17 39.36 85.17 40.29L85.17 40.29L85.17 60.04Q85.17 60.86 85.34 61.99Q85.50 63.12 86.08 63.97Q86.66 64.82 87.92 64.82Z" fill="#daaf37"></path></svg>